<svg xmlns="http://www.w3.org/2000/svg" width="1500" height="1500" viewBox="0 0 1500 1500"><defs><style>.a{font-size:303.6123px;font-family:Helvetica-Bold, Helvetica;font-weight:700;letter-spacing:-0.1em;}.a,.e{fill:#fff;}.b{letter-spacing:-0.1737em;}.c{letter-spacing:-0.1em;}.d{fill:none;}</style></defs><title>Artboard 1</title><text class="a" transform="translate(192.1481 1233.3215) scale(1.0544 1)">TUMU<tspan class="b" x="755.4431" y="0">L</tspan><tspan class="c" x="888.1544" y="0">T</tspan></text><path class="d" d="M1011.38,621.7078q1.1283,2.7435,2.1815,5.4507,6.999-9.0779,13.5891-18.2625-5.2527-11.8585-11.5256-23.9109-6.1637,8.9893-12.6971,17.8567Q1007.5215,612.3605,1011.38,621.7078Z"/><path class="d" d="M980.1809,561.823q6.855,10.982,12.8521,21.8723,6.3372-8.735,12.2434-17.5241-6.29-10.8582-13.3508-21.8119-1.8791,2.91-3.8091,5.8246Q984.2419,556.0255,980.1809,561.823Z"/><path class="d" d="M623.6838,526.896q-6.855-10.9821-12.8521-21.8725-6.3372,8.7346-12.2432,17.5237,6.29,10.8584,13.3511,21.8121,1.8791-2.91,3.8092-5.8246Q619.6231,532.6933,623.6838,526.896Z"/><path class="d" d="M879.2807,334.912q2.7435-1.1283,5.4507-2.1814-9.0775-6.999-18.2622-13.5889-11.8587,5.2527-23.9107,11.5255,8.9889,6.1638,17.8562,12.697Q869.9334,338.77,879.2807,334.912Z"/><path class="d" d="M724.5839,753.8064q-2.7433,1.1283-5.4507,2.1815,9.0779,6.999,18.2625,13.589,11.8585-5.2527,23.9107-11.5254-8.9892-6.164-17.8566-12.6971Q733.9311,749.9483,724.5839,753.8064Z"/><path class="d" d="M784.4688,722.6077q-10.9821,6.855-21.8724,12.8521,8.7348,6.3374,17.524,12.2435,10.8583-6.29,21.8122-13.351-2.91-1.8789-5.8246-3.8092Q790.2664,726.6686,784.4688,722.6077Z"/><path class="d" d="M807.7572,358.1755q5.8413,3.8743,11.6387,7.9352,10.982-6.855,21.8723-12.8521-8.7346-6.3372-17.5238-12.2432-10.8582,6.29-21.8118,13.3509Q804.8424,356.2452,807.7572,358.1755Z"/><path class="d" d="M1015.6245,503.7335q-4.8717,9.36-10.3481,18.8139,7.3261,10.8853,13.9813,21.8119,5.6542-9.2911,10.8021-18.5809-.9154-1.47-1.8407-2.94Q1022.1486,513.22,1015.6245,503.7335Z"/><path class="d" d="M561.5,502.0016q-6.0273,9.2041-11.623,18.4668,5.9967,11.9091,12.8342,23.8909,5.2965-9.2766,11.0943-18.581Q567.208,513.8623,561.5,502.0016Z"/><path class="d" d="M761.3064,330.6671q9.36,4.872,18.8141,10.3482,10.8854-7.326,21.8119-13.9813-9.2913-5.6542-18.5809-10.802-1.47.9155-2.94,1.8406Q770.793,324.1431,761.3064,330.6671Z"/><path class="d" d="M588.24,584.9854q4.8718-9.36,10.3482-18.814-7.3261-10.8855-13.9814-21.8121-5.6541,9.2913-10.802,18.581.9153,1.47,1.84,2.94Q581.716,575.4987,588.24,584.9854Z"/><path class="d" d="M842.5585,758.0514q-9.36-4.8718-18.8141-10.3482-10.8855,7.3261-21.812,13.9814,9.2913,5.6543,18.5809,10.8021,1.47-.9155,2.94-1.8405Q833.072,764.5757,842.5585,758.0514Z"/><path class="d" d="M954.4249,524.2763q7.4976,10.0289,14.3537,20.083,5.9593-8.7417,11.4023-17.4637-7.1061-10.1689-14.74-20.1953Q960.2217,515.4575,954.4249,524.2763Z"/><path class="d" d="M892.8454,635.2723a658.0545,658.0545,0,0,0,61.5795-70.83q-6.5925-10.0284-13.8942-20.083-5.2446,7.22-10.8325,14.4264A127.5938,127.5938,0,0,1,892.8454,635.2723Z"/><path class="d" d="M816.3588,416.5935a127.5944,127.5944,0,0,1,76.4866,36.8528,658.0352,658.0352,0,0,0-70.83-61.58q-10.0284,6.5925-20.083,13.8942Q809.1523,411.0055,816.3588,416.5935Z"/><path class="d" d="M592.4851,467.011q-1.1283-2.7434-2.1814-5.4507-6.9989,9.0776-13.5888,18.2622,5.2527,11.8586,11.5254,23.9107,6.1636-8.9891,12.6969-17.8563Q596.3433,476.3582,592.4851,467.011Z"/><path class="d" d="M711.0192,453.4461a658.0355,658.0355,0,0,0-61.5795,70.83q6.5924,10.0284,13.8941,20.083,5.2447-7.22,10.8328-14.4268A127.5928,127.5928,0,0,1,711.0192,453.4461Z"/><path class="d" d="M649.44,564.4423q-7.4978-10.0289-14.3538-20.083-5.9591,8.7416-11.4021,17.4633,7.1061,10.1691,14.74,20.1956Q643.6428,573.2611,649.44,564.4423Z"/><path class="d" d="M711.0192,635.2725a658.0519,658.0519,0,0,0,70.83,61.5794q10.0284-6.5925,20.083-13.8942-7.22-5.2446-14.4265-10.8326A127.5927,127.5927,0,0,1,711.0192,635.2725Z"/><path class="d" d="M742.2942,368.6233q10.0965-7.9563,20.3022-15.3645-9.6362-5.3036-19.1466-9.8946-10.4262,7.7019-20.66,15.9249Q732.4411,363.5369,742.2942,368.6233Z"/><path class="d" d="M977.6684,484.7211q7.9563,10.0965,15.3646,20.3022,5.3035-9.636,9.8944-19.1465-7.7017-10.4262-15.9248-20.66Q982.7546,474.8681,977.6684,484.7211Z"/><path class="d" d="M626.1963,603.9974q-7.9561-10.0966-15.3646-20.3023-5.3035,9.6361-9.8945,19.1466,7.7019,10.4262,15.925,20.66Q621.11,613.8507,626.1963,603.9974Z"/><path class="d" d="M759.5748,784.7921q9.204,6.0273,18.4667,11.623,11.9091-5.9969,23.891-12.8342-9.2767-5.2967-18.581-11.0943Q771.4354,779.0838,759.5748,784.7921Z"/><path class="d" d="M861.5705,720.0954q-10.0967,7.9563-20.3023,15.3646,9.636,5.3034,19.1465,9.8944,10.4262-7.7019,20.66-15.925Q871.4237,725.1816,861.5705,720.0954Z"/><path class="d" d="M822.0152,696.8519q-10.0289,7.4978-20.083,14.3537,8.7417,5.9593,17.4637,11.4023,10.1689-7.1062,20.1954-14.74Q830.834,702.6488,822.0152,696.8519Z"/><path class="d" d="M781.8492,391.8667q10.0289-7.4977,20.083-14.3537-8.7415-5.9592-17.4634-11.4021-10.169,7.1061-20.1955,14.74Q773.03,386.07,781.8492,391.8667Z"/><path class="d" d="M820.5133,316.2319q11.9162-6.5971,23.7768-12.3055-9.204-6.0273-18.4667-11.6229-11.9091,5.9967-23.8909,12.8342Q811.209,310.4342,820.5133,316.2319Z"/><path class="d" d="M1042.3653,586.717q6.0273-9.204,11.6229-18.4667-5.9967-11.9091-12.8343-23.891-5.2965,9.2766-11.0941,18.5809Q1036.657,574.8562,1042.3653,586.717Z"/><path class="d" d="M784.4688,366.1109q8.7168,5.4409,17.4634,11.4021,8.7417-5.9593,17.4637-11.4023-5.7987-4.0521-11.6387-7.9352-2.915-1.9335-5.8246-3.8092-2.91,1.8789-5.8246,3.8092Q790.2664,362.05,784.4688,366.1109Z"/><path class="d" d="M977.6684,484.7211q5.08-9.8443,9.3342-19.5039a699.5474,699.5474,0,0,0-105.9281-105.928q-9.6508,4.2479-19.504,9.334A708.2329,708.2329,0,0,1,977.6684,484.7211Z"/><path class="d" d="M954.4249,524.2763q5.7935-8.8129,11.0162-17.576a680.9771,680.9771,0,0,0-125.85-125.85q-8.7573,5.2193-17.5761,11.0161a673.3507,673.3507,0,0,1,132.41,132.41Z"/><path class="d" d="M595.4132,337.84c20.0739-20.0738,52.5947-25.0508,93.4906-14.8444q9.9271-7.7391,19.8856-15.1429c-29.6188-10.1927-56.36-14.6372-79.5149-13.2073-23.3175,1.44-41.8262,8.8567-55.0127,22.0432s-20.6028,31.6952-22.0432,55.0127c-1.4675,23.7666,3.251,51.3115,14.0253,81.8693q4.5747,12.9747,10.471,26.2518,6.5874-9.1812,13.5888-18.2622C568.8514,406.4387,570.6122,362.6411,595.4132,337.84Z"/><path class="d" d="M719.1332,332.7307q9.0779-6.999,18.2626-13.589-2.1623-.9578-4.3169-1.8782-9.3329,6.7095-18.6191,13.696Q716.7832,331.8183,719.1332,332.7307Z"/><path class="d" d="M600.9372,485.8769q-6.5457,8.861-12.6969,17.8563,4.8718,9.36,10.3482,18.814,5.912-8.7843,12.2432-17.5237Q605.5282,495.3874,600.9372,485.8769Z"/><path class="d" d="M762.5964,353.2588q8.7348-6.3373,17.5241-12.2435-9.4511-5.4744-18.8141-10.3482-8.9892,6.164-17.8566,12.6971Q752.9531,347.9507,762.5964,353.2588Z"/><path class="d" d="M861.5705,720.0954q9.8445,5.08,19.504,9.334a699.5474,699.5474,0,0,0,105.9281-105.928q-4.248-9.6508-9.3342-19.5039A708.2329,708.2329,0,0,1,861.5705,720.0954Z"/><path class="d" d="M996.5922,440.4336c.582-1.77,1.1245-3.5163,1.6482-5.2514q-4.0832-4.92-8.238-9.8225c.7591-2.4157,1.4925-4.8283,2.171-7.2334q2.6713-9.47,4.4056-18.534,3.8559,4.4059,7.6388,8.8272c3.2368-24.0442-.78-42.8933-12.1161-54.23-15.9815-15.9816-46.8825-17.4335-86.2436-4.4906q24.2748,20.2927,47.374,43.36Q976.2574,416.0851,996.5922,440.4336Z"/><path class="d" d="M905.8581,739.0192q3.3529,1.1025,6.6192,2.06,6.0676-4.8384,12.1083-9.7922c2.4023.8,4.8021,1.5744,7.1953,2.2937q9.4232,2.832,18.4564,4.72-5.1479,4.3528-10.3141,8.6107c23.0676,2.7416,41.1659-1.37,52.1785-12.3824,15.9816-15.9816,17.4333-46.8824,4.49-86.2436Q976.3,672.56,953.2321,695.659,930.2067,718.6845,905.8581,739.0192Z"/><path class="d" d="M930.5032,544.3593a130.784,130.784,0,0,1-.805,14.4264q5.59-7.2027,10.8325-14.4264-5.2446-7.22-10.8325-14.4264A130.784,130.784,0,0,1,930.5032,544.3593Z"/><path class="d" d="M890.4714,758.1506q-2.85-1.04-5.74-2.1626-9.0775,6.999-18.2622,13.5889,2.6843,1.189,5.3573,2.3224,2.5361-1.8285,5.0694-3.674Q883.6965,763.263,890.4714,758.1506Z"/><path class="d" d="M1008.4516,750.8785c-19.8773,19.8773-51.9588,24.9511-92.2912,15.1394q-7.4542,5.8288-14.9248,11.4731c-1.675,1.2641-3.3509,2.5129-5.0267,3.7623,29.1678,9.9174,55.5228,14.2312,78.3814,12.82,23.3173-1.4406,41.8263-8.8567,55.0127-22.0432s20.6026-31.6954,22.0432-55.0127c1.4677-23.7668-3.2508-51.3113-14.0251-81.8691q-4.5747-12.975-10.471-26.2521-6.5877,9.1812-13.5891,18.2625C1035.0136,682.28,1033.2524,726.0777,1008.4516,750.8785Z"/><path class="d" d="M819.3959,722.6079q-8.7169-5.4411-17.4637-11.4023-8.7415,5.9592-17.4634,11.4021,5.799,4.0522,11.6392,7.9354,2.915,1.9335,5.8246,3.8092,2.91-1.8789,5.8246-3.8092Q813.5985,726.6688,819.3959,722.6079Z"/><path class="d" d="M980.1809,526.8956q-5.4411,8.717-11.4023,17.4637,5.9593,8.7417,11.4023,17.4637,4.0524-5.7989,7.9356-11.6391,1.9334-2.915,3.8091-5.8246-1.8791-2.91-3.8091-5.8246Q984.2419,532.6931,980.1809,526.8956Z"/><path class="d" d="M801.9324,327.034q9.2911-5.6542,18.5809-10.8021-9.3019-5.7942-18.5808-11.0942-9.2767,5.2965-18.581,11.0943Q792.6365,321.3725,801.9324,327.034Z"/><path class="d" d="M1002.9274,602.8418q6.5458-8.8613,12.6971-17.8567-4.8717-9.36-10.3481-18.8139-5.9121,8.7845-12.2434,17.5241Q998.3366,593.3313,1002.9274,602.8418Z"/><path class="d" d="M841.2682,735.46q-8.7346,6.3372-17.5238,12.2432,9.4511,5.4745,18.8141,10.3482,8.9889-6.1638,17.8562-12.697Q850.9115,740.768,841.2682,735.46Z"/><path class="d" d="M993.033,505.0233q6.3372,8.7348,12.2434,17.5241,5.4746-9.4511,10.3481-18.8139-6.1637-8.9894-12.6971-17.8567Q998.341,495.38,993.033,505.0233Z"/><path class="d" d="M623.6838,561.8226q5.4409-8.7167,11.4021-17.4633-5.9591-8.7415-11.4021-17.4633-4.0521,5.7987-7.935,11.6387-1.9335,2.9149-3.8092,5.8246,1.8791,2.91,3.8092,5.8246Q619.6231,556.0254,623.6838,561.8226Z"/><path class="d" d="M610.8317,583.6951q-6.337-8.7347-12.2432-17.5237-5.4745,9.4511-10.3482,18.814,6.1636,8.9891,12.6969,17.8563Q605.5238,593.3385,610.8317,583.6951Z"/><path class="d" d="M860.4147,343.3642q-8.861-6.5458-17.8562-12.697-9.36,4.8718-18.8141,10.3482,8.7843,5.9121,17.5238,12.2432Q850.9042,347.955,860.4147,343.3642Z"/><path class="d" d="M1015.4775,456.4973q-.9255,2.5152-1.9165,5.0628,6.999,9.0779,13.5891,18.2625,1.1541-2.6055,2.2552-5.2c-.5536-.7359-1.1023-1.4728-1.6584-2.2084Q1021.7151,464.4363,1015.4775,456.4973Z"/><path class="d" d="M1008.4516,337.84c20.0628,20.0628,25.0453,52.559,14.861,93.4234q6.7637,8.3151,13.2848,16.6569c.6925.886,1.3732,1.7728,2.0616,2.6591,10.0379-29.3658,14.4069-55.8894,12.9872-78.8781-1.4406-23.3173-8.8567-41.8263-22.0432-55.0127s-31.6954-20.6026-55.0127-22.0432c-23.7666-1.4675-51.3113,3.2508-81.8691,14.0251q-12.9749,4.5749-26.252,10.4711,9.1812,6.5875,18.2622,13.5889C939.8532,311.2782,983.6506,313.0391,1008.4516,337.84Z"/><path class="d" d="M590.3037,627.1583q-6.9989-9.0777-13.5888-18.2622-1.6869,3.8082-3.2665,7.5942,6.9,9.0879,14.0716,18.123Q588.84,630.9214,590.3037,627.1583Z"/><path class="d" d="M595.4132,750.8785c-19.6419-19.6419-24.8286-51.2011-15.4814-90.8622q-7.9466-9.6741-15.5654-19.3867c-9.4409,28.3761-13.527,54.0509-12.1478,76.3876,1.44,23.3175,8.8567,41.8263,22.0432,55.0127s31.6952,20.6028,55.0127,22.0432c23.7668,1.4677,51.3115-3.251,81.8693-14.0253q12.9747-4.5746,26.2519-10.4709-9.1814-6.5875-18.2625-13.589C664.0118,777.44,620.2141,775.6793,595.4132,750.8785Z"/><path class="d" d="M743.45,745.3544q8.8611,6.5457,17.8566,12.6971,9.36-4.872,18.814-10.3482-8.7843-5.9121-17.524-12.2435Q752.96,740.7633,743.45,745.3544Z"/><path class="d" d="M822.0152,696.8519q8.8129,5.7935,17.5761,11.0161a680.9771,680.9771,0,0,0,125.85-125.85q-5.2194-8.7571-11.0162-17.576a673.3507,673.3507,0,0,1-132.41,132.41Z"/><path class="d" d="M673.3617,544.3593a130.7682,130.7682,0,0,1,.8049-14.4268q-5.59,7.203-10.8328,14.4268,5.2447,7.22,10.8328,14.4268A130.7682,130.7682,0,0,1,673.3617,544.3593Z"/><path class="d" d="M801.9324,672.93a130.765,130.765,0,0,1-14.4267-.8049q7.2028,5.59,14.4265,10.8326,7.22-5.2446,14.4266-10.8326A130.76,130.76,0,0,1,801.9324,672.93Z"/><path class="d" d="M844.29,784.7922q-9.204,6.0273-18.4667,11.6229,2.942,1.4814,5.8781,2.9046,8.9805-5.8,18.0355-11.9479Q847.0162,786.1044,844.29,784.7922Z"/><path class="d" d="M1059.4276,627.4594c24.785,70.2964,20,127.4459-13.4747,160.92s-90.624,38.26-160.92,13.4746q-5.6676-1.9982-11.382-4.2386-9.0753,6.3948-18.1427,12.4823a396.8579,396.8579,0,0,0,37.8407,13.6684c36.1975,10.9737,69.2243,14.8258,98.1621,11.4491,28.9533-3.3788,52.4744-13.9325,69.91-31.3681s27.99-40.9569,31.3681-69.91c3.3769-28.938-.4754-61.9647-11.4493-98.1619a424.593,424.593,0,0,0-27.3512-67.5253q-5.5926,9.2593-11.6229,18.4667A401.35,401.35,0,0,1,1059.4276,627.4594Z"/><path class="d" d="M781.8492,391.8667q-8.813-5.7935-17.5759-11.0161a680.9935,680.9935,0,0,0-125.85,125.85q5.2192,8.7571,11.0161,17.5759a673.3425,673.3425,0,0,1,132.4095-132.41Z"/><path class="d" d="M1019.2577,544.3593q5.6542,9.2912,10.8021,18.5809,5.7942-9.302,11.0941-18.5809-5.2965-9.2766-11.0941-18.5809Q1024.9193,535.0634,1019.2577,544.3593Z"/><path class="d" d="M742.2942,368.6233q-9.8445-5.08-19.504-9.3342a699.5651,699.5651,0,0,0-105.928,105.928q4.2478,9.6508,9.3341,19.5041A708.2329,708.2329,0,0,1,742.2942,368.6233Z"/><path class="d" d="M607.2725,648.2849q-1.2743,3.8752-2.3586,7.6369,2.4247,2.894,4.8745,5.7814c-.7592,2.4157-1.4926,4.8282-2.1713,7.2333q-2.6718,9.47-4.4064,18.5338c-1.3082-1.4949-2.6033-2.9927-3.9-4.49-2.5921,22.7659,1.5409,40.6366,12.4527,51.5483,15.9816,15.9816,46.8823,17.4335,86.2436,4.49q-24.2748-20.2926-47.374-43.36Q627.6074,672.6336,607.2725,648.2849Z"/><circle class="d" cx="801.9323" cy="544.3593" r="105.4482"/><path class="d" d="M801.9324,415.7886a130.76,130.76,0,0,1,14.4264.8049q-7.2028-5.59-14.4266-10.8326-7.22,5.2446-14.4265,10.8326A130.7405,130.7405,0,0,1,801.9324,415.7886Z"/><path class="d" d="M698.0067,349.7c-1.8592-.6114-3.693-1.18-5.5138-1.7272q-2.5706,2.044-5.1376,4.1035c-2.3946-.823-4.7868-1.62-7.1731-2.3625q-9.3955-2.922-18.41-4.8966c1.15-.9536,2.302-1.8952,3.4532-2.8425-23.6772-3.0487-42.2469,1.0006-53.462,12.2158-15.9816,15.9816-17.4336,46.8824-4.4906,86.2437q20.2928-24.2749,43.36-47.3741Q673.6582,370.0341,698.0067,349.7Z"/><path class="d" d="M1045.1443,496.12q-1.3645,2.9379-2.779,5.8814,6.0273,9.204,11.6229,18.4667,1.7076-3.3909,3.34-6.7744-4.9464-7.3083-10.1229-14.6613Q1046.1789,497.5773,1045.1443,496.12Z"/><path class="d" d="M885.0325,286.8642c70.2964-24.7851,127.4457-20,160.92,13.4746s38.26,90.624,13.4747,160.92q-1.9756,5.6034-4.1875,11.2525c.5639.7668,1.1356,1.5336,1.6963,2.3q5.61,7.6738,10.9933,15.3465,7.8138-18.78,13.41-37.2157c10.9739-36.1972,14.8262-69.2239,11.4493-98.1619-3.3785-28.9531-13.9325-52.4744-31.3681-69.91s-40.9567-27.9893-69.91-31.3681c-28.9378-3.3767-61.9646.4754-98.1621,11.4491a424.5964,424.5964,0,0,0-67.5251,27.3514q9.2594,5.5926,18.4667,11.6229A401.3264,401.3264,0,0,1,885.0325,286.8642Z"/><path class="d" d="M626.1963,603.9974q-5.08,9.8445-9.3341,19.5041A699.5651,699.5651,0,0,0,722.79,729.43q9.6508-4.2478,19.504-9.3342A708.2329,708.2329,0,0,1,626.1963,603.9974Z"/><path class="d" d="M555.0909,591.564c.8282,1.1638,1.6677,2.3259,2.5035,3.4886q1.9017-4.1617,3.9052-8.3356-6.0273-9.2041-11.623-18.4668-2.3469,4.6607-4.56,9.3075,3.5776,5.2239,7.2722,10.47Q553.8348,589.7948,555.0909,591.564Z"/><path class="d" d="M718.8325,801.8542c-70.2966,24.7853-127.4461,20-160.9206-13.4744s-38.26-90.624-13.4744-160.9206q1.5312-4.3431,3.209-8.7148-2.4138-3.2479-4.79-6.4967-4.053-5.5446-7.9907-11.0891-7.1307,17.46-12.3407,34.6168C511.5513,671.973,507.6994,705,511.0761,733.9375c3.3788,28.9533,13.9325,52.4744,31.3681,69.91s40.9569,27.99,69.91,31.3681c28.9379,3.3769,61.9644-.4752,98.1618-11.4493a424.5846,424.5846,0,0,0,67.5254-27.3512q-9.2594-5.5928-18.4667-11.623A401.3428,401.3428,0,0,1,718.8325,801.8542Z"/><path class="d" d="M649.44,564.4423q-5.7935,8.8128-11.0161,17.5759a680.9935,680.9935,0,0,0,125.85,125.85q8.7572-5.2192,17.5759-11.0161A673.3425,673.3425,0,0,1,649.44,564.4423Z"/><path class="d" d="M584.6071,544.3593q-5.6541-9.2913-10.802-18.581-5.7942,9.302-11.0943,18.581,5.2965,9.2766,11.0943,18.581Q578.9456,553.6553,584.6071,544.3593Z"/><path class="d" d="M801.9324,761.6846q-9.2913,5.6541-18.5809,10.802,9.3021,5.7944,18.581,11.0943,9.2764-5.2967,18.5808-11.0942Q811.2283,767.3462,801.9324,761.6846Z"/><path class="d" d="M758.9213,299.2588c-1.261.8479-2.5207,1.7073-3.7807,2.5638q2.2157,1.0387,4.4342,2.1039,9.204-6.0273,18.4667-11.623-2.4462-1.2318-4.8887-2.4245-5.3025,3.4287-10.63,6.9728Q760.7232,298.05,758.9213,299.2588Z"/><path class="d" d="M544.4375,461.2594c-24.7853-70.2966-20-127.4459,13.4744-160.9206s90.624-38.26,160.9206-13.4744q6.2152,2.1914,12.4868,4.6745,3.6252-2.5518,7.25-5.0589,5.4347-3.7556,10.8662-7.4023a397.89,397.89,0,0,0-38.92-14.1254c-36.1974-10.9741-69.2239-14.8262-98.1618-11.4493-28.9532,3.3786-52.4745,13.9325-69.91,31.3681s-27.9893,40.9567-31.3681,69.91c-3.3767,28.9378.4752,61.9645,11.4491,98.1621a424.6012,424.6012,0,0,0,27.3514,67.5252q5.5926-9.2594,11.623-18.4668A401.3318,401.3318,0,0,1,544.4375,461.2594Z"/><path class="e" d="M727.3691,618.9226a643.1789,643.1789,0,0,0,60.1366,53.2025,129.6889,129.6889,0,0,0,28.8531,0,643.1809,643.1809,0,0,0,60.1367-53.2027A105.5677,105.5677,0,0,1,727.3691,618.9226Z"/><path class="e" d="M727.3691,469.796a643.1746,643.1746,0,0,0-53.2025,60.1365,129.6934,129.6934,0,0,0,0,28.8536,643.1746,643.1746,0,0,0,53.2025,60.1365A105.5678,105.5678,0,0,1,727.3691,469.796Z"/><path class="e" d="M787.5057,416.5935a643.15,643.15,0,0,0-60.1366,53.2025,105.5677,105.5677,0,0,1,149.1264,0,643.1809,643.1809,0,0,0-60.1367-53.2027,129.6889,129.6889,0,0,0-28.8531,0Z"/><path class="e" d="M876.4955,618.9224a643.1792,643.1792,0,0,0,53.2027-60.1367,129.67,129.67,0,0,0,0-28.8528,643.1792,643.1792,0,0,0-53.2027-60.1367A105.5676,105.5676,0,0,1,876.4955,618.9224Z"/><path class="e" d="M616.8622,465.2171q-8.217,10.232-15.925,20.66,4.5866,9.5033,9.8945,19.1466,7.4006-10.2,15.3646-20.3023Q621.1158,474.8767,616.8622,465.2171Z"/><path class="e" d="M638.4236,506.7q-7.6386,10.0209-14.74,20.1956,5.4409,8.7167,11.4021,17.4633,6.8487-10.0461,14.3538-20.083Q643.6463,515.4635,638.4236,506.7Z"/><path class="e" d="M611.7631,354.19c11.2151-11.2152,29.7848-15.2645,53.462-12.2158q11.5353-9.4925,23.1394-18.56c.18-.14.36-.2781.5393-.4182-40.8959-10.2064-73.4167-5.2294-93.4906,14.8444-24.801,24.801-26.5618,68.5986-5.1095,123.72q8.21-10.6481,16.9688-21.1266C594.33,401.0724,595.7815,370.1716,611.7631,354.19Z"/><path class="e" d="M674.1666,558.7861q-5.59-7.203-10.8328-14.4268-7.2971,10.0455-13.8941,20.083a658.0355,658.0355,0,0,0,61.5795,70.83A127.5928,127.5928,0,0,1,674.1666,558.7861Z"/><path class="e" d="M987.0026,623.5014q8.2169-10.2319,15.9248-20.66-4.5864-9.5033-9.8944-19.1465-7.4006,10.2-15.3646,20.3022Q982.7489,613.8419,987.0026,623.5014Z"/><path class="e" d="M992.1017,734.5286c-11.0126,11.0126-29.1109,15.124-52.1785,12.3824q-8.02,6.6254-16.0723,13.0458-3.842,3.0586-7.6905,6.0611c40.3324,9.8117,72.4139,4.7379,92.2912-15.1394,24.8008-24.8008,26.562-68.5984,5.1094-123.72q-8.21,10.6481-16.9688,21.1265C1009.535,687.6462,1008.0833,718.547,992.1017,734.5286Z"/><path class="e" d="M929.6982,529.9329q5.59,7.2027,10.8325,14.4264,7.297-10.0455,13.8942-20.083a658.0545,658.0545,0,0,0-61.5795-70.83A127.5938,127.5938,0,0,1,929.6982,529.9329Z"/><path class="e" d="M965.4411,582.0183q7.6386-10.0206,14.74-20.1953-5.4411-8.7169-11.4023-17.4637-6.8486,10.0462-14.3537,20.083Q960.2184,573.2552,965.4411,582.0183Z"/><path class="e" d="M929.6982,529.9329A128.6038,128.6038,0,0,0,816.3588,416.5935,657.439,657.439,0,0,1,929.6982,529.9329Z"/><path class="e" d="M674.1666,558.7861a128.603,128.603,0,0,0,113.3391,113.339,657.43,657.43,0,0,1-113.3391-113.339Z"/><path class="e" d="M881.0745,359.2892q-10.2319-8.2172-20.66-15.925-9.5032,4.5864-19.1465,9.8944,10.2,7.4005,20.3023,15.3646Q871.415,363.5427,881.0745,359.2892Z"/><path class="e" d="M992.1017,354.19c11.3362,11.3362,15.3529,30.1853,12.1161,54.23q7.3527,8.572,14.4632,17.1871,2.33,2.8266,4.6316,5.6569c10.1843-40.8644,5.2018-73.3606-14.861-93.4234-24.801-24.801-68.5984-26.5619-123.72-5.11q10.6481,8.21,21.1267,16.9688C945.2192,336.7565,976.12,338.2084,992.1017,354.19Z"/><path class="e" d="M822.0152,391.8667q8.8129-5.7935,17.5761-11.0161-10.0209-7.6387-20.1954-14.74-8.7169,5.4411-17.4637,11.4023Q811.9783,384.3616,822.0152,391.8667Z"/><path class="e" d="M611.7631,734.5286c-10.9118-10.9117-15.0448-28.7824-12.4527-51.5483q-9.2919-10.727-18.2006-21.5253c-.395-.4793-.7842-.9593-1.178-1.4387-9.3472,39.6611-4.16,71.22,15.4814,90.8622,24.8009,24.8008,68.5986,26.5618,123.72,5.1094q-10.6479-8.21-21.1265-16.9688C658.6454,751.9621,627.7447,750.51,611.7631,734.5286Z"/><path class="e" d="M722.79,729.43q10.2318,8.217,20.66,15.9249,9.5033-4.5866,19.1466-9.8946-10.2-7.4-20.3022-15.3645Q732.45,725.1758,722.79,729.43Z"/><path class="e" d="M764.2733,707.868q10.0208,7.6386,20.1955,14.74,8.7168-5.4409,17.4634-11.4021-10.0461-6.8485-20.083-14.3537Q773.0362,702.6454,764.2733,707.868Z"/><path class="e" d="M816.3588,672.1251q-7.2028,5.59-14.4266,10.8326,10.0455,7.2971,20.083,13.8942a658.0352,658.0352,0,0,0,70.83-61.58A127.5944,127.5944,0,0,1,816.3588,672.1251Z"/><path class="e" d="M787.5057,416.5935q7.2028-5.59,14.4265-10.8326-10.0453-7.297-20.083-13.8942a658.0519,658.0519,0,0,0-70.83,61.5794A127.593,127.593,0,0,1,787.5057,416.5935Z"/><path class="e" d="M787.5057,416.5935a128.603,128.603,0,0,0-113.3391,113.339,657.43,657.43,0,0,1,113.3391-113.339Z"/><path class="e" d="M816.3588,672.1251A128.6038,128.6038,0,0,0,929.6982,558.7857,657.439,657.439,0,0,1,816.3588,672.1251Z"/><path class="e" d="M663.3338,544.3593q-7.2971-10.0455-13.8941-20.083-7.4978,10.0289-14.3538,20.083,6.8487,10.0461,14.3538,20.083Q656.0321,554.4139,663.3338,544.3593Z"/><path class="e" d="M940.5307,544.3593q7.297,10.0455,13.8942,20.083,7.4976-10.0289,14.3537-20.083-6.8486-10.0462-14.3537-20.083Q947.8324,534.3046,940.5307,544.3593Z"/><path class="e" d="M801.9322,405.7609q10.0455-7.297,20.083-13.8942-10.0289-7.4977-20.083-14.3537-10.0461,6.8486-20.083,14.3537Q791.8776,398.4592,801.9322,405.7609Z"/><path class="e" d="M801.9322,682.9577q-10.0453,7.2971-20.083,13.8942,10.0289,7.4978,20.083,14.3537,10.0461-6.8485,20.083-14.3537Q811.9868,690.2594,801.9322,682.9577Z"/><path class="e" d="M588.24,503.7332q-6.5067,9.4893-12.5948,19.1056-.9277,1.47-1.84,2.9395,5.14,9.285,10.802,18.581,6.6453-10.92,13.9814-21.8121Q593.114,513.0962,588.24,503.7332Z"/><path class="e" d="M1037.6211,635.1481c10.7743,30.5578,15.4928,58.1023,14.0251,81.8691-1.4406,23.3173-8.8567,41.8263-22.0432,55.0127s-31.6954,20.6026-55.0127,22.0432c-22.8586,1.4114-49.2136-2.9024-78.3814-12.82q-11.0978,8.2731-22.207,16.1166c-.1172.0826-.2343.1634-.3514.2459q5.7117,2.2308,11.382,4.2386c70.2964,24.7851,127.4457,20,160.92-13.4746s38.26-90.624,13.4747-160.92a401.35,401.35,0,0,0-17.0623-40.7424q-7.2978,11.1441-15.2152,22.179Q1033.0255,622.16,1037.6211,635.1481Z"/><path class="e" d="M638.4236,582.0182q-6.5941,11.064-12.2273,21.9792A708.2329,708.2329,0,0,0,742.2942,720.0953q10.9029-5.6268,21.9791-12.2273a680.9935,680.9935,0,0,1-125.85-125.85Z"/><path class="e" d="M623.6838,561.8226q-4.0521-5.7987-7.935-11.6387-1.9335-2.915-3.8092-5.8246-7.0712,10.9506-13.3511,21.8121,5.912,8.7843,12.2432,17.5237Q616.82,572.8158,623.6838,561.8226Z"/><path class="e" d="M566.2439,453.5707c-10.7743-30.5578-15.4928-58.1027-14.0253-81.8693,1.44-23.3175,8.8567-41.8263,22.0432-55.0127s31.6952-20.6028,55.0127-22.0432c23.1545-1.43,49.8961,3.0146,79.5149,13.2073.7858-.5846,1.5713-1.1744,2.3572-1.7558q10.0806-7.4565,20.1727-14.5581-6.2681-2.4705-12.4868-4.6745c-70.2966-24.7853-127.4461-20-160.9206,13.4744s-38.26,90.624-13.4744,160.9206A401.3318,401.3318,0,0,0,561.5,502.0016q7.2978-11.1441,15.2153-22.1791Q570.84,466.5583,566.2439,453.5707Z"/><path class="e" d="M965.4411,506.7q6.5942-11.0641,12.2273-21.9792A708.2329,708.2329,0,0,0,861.5705,368.6232q-10.9029,5.6268-21.9792,12.2274a680.9771,680.9771,0,0,1,125.85,125.85Z"/><path class="e" d="M1015.6245,584.9851q6.5067-9.489,12.5946-19.1051.9279-1.47,1.8407-2.94-5.14-9.285-10.8021-18.5809-6.6452,10.92-13.9813,21.8119Q1010.751,575.6223,1015.6245,584.9851Z"/><path class="e" d="M980.1809,526.8956q4.0524,5.7989,7.9356,11.6391,1.9334,2.9149,3.8091,5.8246,7.0708-10.9506,13.3508-21.8119-5.9121-8.7844-12.2434-17.5241Q987.0452,515.9027,980.1809,526.8956Z"/><path class="e" d="M742.2942,720.0953q10.0965,7.9563,20.3022,15.3645,10.8793-5.9878,21.8724-12.8521-10.169-7.1061-20.1955-14.74Q753.2093,714.4621,742.2942,720.0953Z"/><path class="e" d="M638.4236,582.0182q-7.6386-10.0209-14.74-20.1956-6.855,10.9821-12.8521,21.8725,7.4006,10.2,15.3646,20.3023Q631.8231,593.0944,638.4236,582.0182Z"/><path class="e" d="M965.4411,506.7q7.6386,10.0206,14.74,20.1953,6.855-10.9819,12.8521-21.8723-7.4006-10.2-15.3646-20.3022Q972.0416,495.624,965.4411,506.7Z"/><path class="e" d="M861.5705,368.6232q-10.0967-7.9563-20.3023-15.3646-10.8793,5.9878-21.8723,12.8521,10.1689,7.1062,20.1954,14.74Q850.6553,374.2563,861.5705,368.6232Z"/><path class="e" d="M892.7212,308.6706c30.5578-10.7743,58.1025-15.4926,81.8691-14.0251,23.3173,1.4406,41.8263,8.8567,55.0127,22.0432s20.6026,31.6954,22.0432,55.0127c1.42,22.9887-2.9493,49.5123-12.9872,78.8781q8.5084,10.9552,16.5811,21.9322,2.2027-5.6466,4.1875-11.2525c24.785-70.2964,20-127.4459-13.4747-160.92s-90.624-38.26-160.92-13.4746A401.3264,401.3264,0,0,0,844.29,303.9264q11.1441,7.2978,22.1791,15.2153Q879.7334,313.2664,892.7212,308.6706Z"/><path class="e" d="M839.5913,707.868q11.064,6.5943,21.9792,12.2274A708.2329,708.2329,0,0,0,977.6684,603.9975q-5.6268-10.9029-12.2273-21.9792a680.9771,680.9771,0,0,1-125.85,125.85Z"/><path class="e" d="M823.7444,341.0154q9.4511-5.4746,18.8141-10.3482-9.4894-6.5067-19.1056-12.5948-1.47-.9278-2.94-1.8405-9.285,5.1405-18.5809,10.8021Q812.8521,333.6791,823.7444,341.0154Z"/><path class="e" d="M764.2733,380.8506q-11.064-6.5942-21.9791-12.2273A708.2329,708.2329,0,0,0,626.1963,484.7212q5.6268,10.903,12.2273,21.9792a680.9935,680.9935,0,0,1,125.85-125.85Z"/><path class="e" d="M761.3064,758.0515q9.4893,6.5065,19.1053,12.5945,1.47.9278,2.94,1.8406,9.285-5.14,18.5809-10.802-10.92-6.6453-21.812-13.9813Q770.6694,753.1778,761.3064,758.0515Z"/><path class="e" d="M819.3959,722.6079q-5.7987,4.0521-11.6387,7.9352-2.915,1.9335-5.8246,3.8092,10.95,7.071,21.8118,13.3509,8.7843-5.9121,17.5238-12.2432Q830.3889,729.4722,819.3959,722.6079Z"/><path class="e" d="M784.4688,366.1109q5.799-4.0523,11.6392-7.9354,2.915-1.9335,5.8246-3.8092-10.9506-7.071-21.8121-13.351-8.7845,5.9122-17.5241,12.2435Q773.4757,359.2467,784.4688,366.1109Z"/><path class="e" d="M711.1438,780.0478c-30.5578,10.7743-58.1025,15.493-81.8693,14.0253-23.3175-1.44-41.8262-8.8567-55.0127-22.0432s-20.6028-31.6952-22.0432-55.0127c-1.3792-22.3367,2.7069-48.0115,12.1478-76.3876-.3895-.4965-.7838-.9926-1.1719-1.4892q-7.9621-10.187-15.548-20.396-1.6681,4.37-3.209,8.7148c-24.7853,70.2966-20,127.4459,13.4744,160.9206s90.624,38.26,160.9206,13.4744a401.3428,401.3428,0,0,0,40.7423-17.0621q-11.1442-7.2978-22.1791-15.2152Q724.1315,775.4521,711.1438,780.0478Z"/><path class="e" d="M764.2733,380.8506q10.0208-7.6386,20.1955-14.74-10.9821-6.855-21.8724-12.8521-10.2,7.4-20.3022,15.3645Q753.1971,374.25,764.2733,380.8506Z"/><path class="e" d="M977.6684,603.9975q7.9563-10.0965,15.3646-20.3022-5.9878-10.8793-12.8521-21.8723-7.1061,10.169-14.74,20.1953Q972.0353,593.0825,977.6684,603.9975Z"/><path class="e" d="M626.1963,484.7212q-7.9561,10.0966-15.3646,20.3023,5.9879,10.8793,12.8521,21.8725,7.1061-10.1691,14.74-20.1956Q631.8295,495.6364,626.1963,484.7212Z"/><path class="e" d="M839.5913,707.868q-10.0209,7.6387-20.1954,14.74,10.982,6.855,21.8723,12.8521,10.2-7.4006,20.3023-15.3646Q850.6676,714.4686,839.5913,707.868Z"/><path class="e" d="M611.94,544.3593q-7.0712-10.9506-13.3511-21.8121-7.3261,10.8855-13.9814,21.8121,6.6453,10.92,13.9814,21.8121Q604.8783,555.3131,611.94,544.3593Z"/><path class="e" d="M801.9326,354.3663q10.95-7.071,21.8118-13.3509-10.8855-7.3261-21.812-13.9814-10.92,6.6451-21.8119,13.9813Q790.9789,347.3051,801.9326,354.3663Z"/><path class="e" d="M991.9256,544.3593q7.0708,10.9506,13.3508,21.8119,7.3261-10.8854,13.9813-21.8119-6.6452-10.92-13.9813-21.8119Q998.9868,533.4056,991.9256,544.3593Z"/><path class="e" d="M801.9326,734.3523q-10.9506,7.071-21.8122,13.351,10.8855,7.3261,21.812,13.9813,10.92-6.6453,21.812-13.9814Q812.8862,741.4136,801.9326,734.3523Z"/><path class="e" d="M616.8622,623.5015c-1.0312,2.3427-2.0381,4.6791-2.9931,7.0011q-3.76,9.1428-6.5966,17.7823,20.2928,24.275,43.36,47.3741,23.0254,23.0255,47.374,43.36,8.6307-2.8378,17.7824-6.5965c2.322-.955,4.6584-1.9619,7.0011-2.9931a699.5651,699.5651,0,0,1-105.928-105.928Z"/><path class="e" d="M1011.38,467.0108q-3.84,9.3363-8.4521,18.866,6.5458,8.8612,12.6971,17.8567,6.27-12.046,11.5256-23.9109-6.5877-9.1814-13.5891-18.2625Q1012.5074,464.2675,1011.38,467.0108Z"/><path class="e" d="M1081.3394,635.7756c10.9739,36.1972,14.8262,69.2239,11.4493,98.1619-3.3785,28.9531-13.9325,52.4744-31.3681,69.91s-40.9567,27.9893-69.91,31.3681c-28.9378,3.3767-61.9646-.4754-98.1621-11.4491a396.8579,396.8579,0,0,1-37.8407-13.6684c-1.3312.8944-2.6626,1.79-3.9933,2.6741q-9.6177,6.3909-19.2066,12.4141A434.7646,434.7646,0,0,0,886.64,845.8939c39.2547,11.9009,75.44,16.0349,107.5507,12.2879,34.2515-3.997,62.3719-16.7767,83.58-37.9845s33.9874-49.3282,37.9846-83.58c3.747-32.111-.3871-68.2958-12.2879-107.5507-8.4616-27.9106-20.55-56.37-35.8271-84.7075q-6.4521,11.9676-13.6519,23.891A424.593,424.593,0,0,1,1081.3394,635.7756Z"/><path class="e" d="M573.8051,562.94q-5.7942-9.3019-11.0943-18.581-6.8386,11.9774-12.8342,23.8909,5.5926,9.2594,11.623,18.4668Q567.2148,574.8649,573.8051,562.94Z"/><path class="e" d="M592.4851,621.7076q3.84-9.3363,8.4521-18.8659-6.5457-8.861-12.6969-17.8563-6.27,12.0461-11.5254,23.9107,6.5874,9.1812,13.5888,18.2622Q591.3573,624.4509,592.4851,621.7076Z"/><path class="e" d="M522.5252,452.9432c-10.9739-36.1976-14.8258-69.2243-11.4491-98.1621,3.3788-28.9533,13.9325-52.4744,31.3681-69.91s40.9569-27.99,69.91-31.3681c28.9379-3.3769,61.9644.4752,98.1618,11.4493a397.89,397.89,0,0,1,38.92,14.1254q5.8872-3.9551,11.7676-7.784,5.7011-3.71,11.3909-7.2846a435.7006,435.7006,0,0,0-55.3693-21.1846c-39.2549-11.9007-75.44-16.0351-107.5507-12.2879-34.2518,3.997-62.3721,16.7769-83.58,37.9847s-33.9877,49.328-37.9845,83.58c-3.7472,32.1108.387,68.296,12.2879,107.5507,8.4616,27.9107,20.55,56.37,35.827,84.7077q6.452-11.9676,13.6518-23.8909A424.6012,424.6012,0,0,1,522.5252,452.9432Z"/><path class="e" d="M1030.06,525.7784q5.7942,9.3019,11.0941,18.5809,6.8386-11.9773,12.8343-23.891-5.5926-9.2594-11.6229-18.4667Q1036.65,513.8539,1030.06,525.7784Z"/><path class="e" d="M987.0026,465.2172c1.0312-2.3427,2.0381-4.6791,2.9931-7.0012q3.76-9.143,6.5965-17.7824-20.2926-24.2748-43.36-47.374-23.0254-23.0255-47.374-43.36-8.6307,2.8381-17.7824,6.5966c-2.3221.955-4.6584,1.962-7.0012,2.9932a699.5474,699.5474,0,0,1,105.9281,105.928Z"/><path class="e" d="M888.0757,356.296q9.1428-3.76,17.7824-6.5966-10.4733-8.7551-21.1267-16.9688-2.7074,1.0536-5.4507,2.1814-9.3363,3.84-18.866,8.4522,10.4262,7.7019,20.66,15.925C883.4173,358.258,885.7536,357.251,888.0757,356.296Z"/><path class="e" d="M989.9957,458.216c-.955,2.3221-1.9619,4.6585-2.9931,7.0012q8.2169,10.232,15.9248,20.66,4.594-9.5187,8.4521-18.866,1.1283-2.7435,2.1815-5.4507-8.21-10.648-16.9688-21.1265Q993.7542,449.0643,989.9957,458.216Z"/><path class="e" d="M715.7891,732.4226q-9.1428,3.76-17.7824,6.5965,10.4733,8.7551,21.1265,16.9688,2.7075-1.0536,5.4507-2.1815,9.3363-3.84,18.8659-8.452-10.4262-7.7019-20.66-15.9249C720.4475,730.4607,718.1111,731.4676,715.7891,732.4226Z"/><path class="e" d="M613.8691,630.5026c.955-2.322,1.9619-4.6584,2.9931-7.0011q-8.217-10.2319-15.925-20.66-4.5939,9.5187-8.4521,18.8659-1.1283,2.7434-2.1814,5.4507,8.21,10.648,16.9688,21.1266Q610.1105,639.6544,613.8691,630.5026Z"/><path class="e" d="M842.5585,330.6672q12.0459-6.27,23.9107-11.5255Q855.44,311.2284,844.29,303.9264q-11.8523,5.7151-23.7768,12.3055,1.47.9154,2.94,1.8405Q833.072,324.1429,842.5585,330.6672Z"/><path class="e" d="M588.24,584.9854q-6.5067-9.4893-12.5948-19.1056-.9277-1.47-1.84-2.94Q567.208,574.8563,561.5,586.717q7.2978,11.1441,15.2153,22.1791Q581.9676,597.0376,588.24,584.9854Z"/><path class="e" d="M1015.6245,503.7335q6.5067,9.489,12.5946,19.1051.9279,1.47,1.8407,2.94,6.5972-11.916,12.3055-23.7768-7.2978-11.1441-15.2152-22.179Q1021.8973,491.6812,1015.6245,503.7335Z"/><path class="e" d="M761.3064,758.0515q-12.0458,6.27-23.9107,11.5254,11.029,7.9132,22.1791,15.2152,11.8521-5.7152,23.7767-12.3055-1.47-.9154-2.94-1.8406Q770.793,764.5755,761.3064,758.0515Z"/><path class="e" d="M994.1908,230.5368c-32.111-3.747-68.296.387-107.5507,12.2879-27.9107,8.4617-56.37,20.55-84.7075,35.827q11.9674,6.4519,23.8908,13.6518a424.5964,424.5964,0,0,1,67.5251-27.3514c36.1975-10.9737,69.2243-14.8258,98.1621-11.4491,28.9533,3.3788,52.4744,13.9325,69.91,31.3681s27.99,40.9569,31.3681,69.91c3.3769,28.938-.4754,61.9647-11.4493,98.1619q-5.583,18.4157-13.41,37.2157,2.4147,3.4386,4.7892,6.8757,5.427,7.8729,10.601,15.7309a433.5613,433.5613,0,0,0,20.1473-53.1135c11.9008-39.2549,16.0349-75.44,12.2879-107.5507-3.9972-34.2516-16.7769-62.3721-37.9846-83.58S1028.4423,234.5338,994.1908,230.5368Z"/><path class="e" d="M710.5161,823.7663c-36.1974,10.9741-69.2239,14.8262-98.1618,11.4493-28.9532-3.3786-52.4745-13.9325-69.91-31.3681s-27.9893-40.9567-31.3681-69.91c-3.3767-28.9378.4752-61.9645,11.4491-98.1621q5.1966-17.14,12.3407-34.6168-3.9547-5.5684-7.7908-11.1337-3.932-5.7048-7.7235-11.4015a431.2284,431.2284,0,0,0-18.9538,50.4436c-11.9009,39.2547-16.0351,75.44-12.2879,107.5507,3.9968,34.2516,16.7767,62.3719,37.9845,83.58s49.328,33.9877,83.58,37.9847c32.1108,3.7472,68.2958-.3872,107.5507-12.2879,27.9106-8.4617,56.37-20.55,84.7077-35.8272q-11.9677-6.452-23.8911-13.6518A424.5846,424.5846,0,0,1,710.5161,823.7663Z"/><path class="e" d="M722.79,359.2891c-2.3427-1.0312-4.6791-2.0381-7.0011-2.9931q-9.1428-3.76-17.7824-6.5965-24.2748,20.2926-47.374,43.36-23.0253,23.0255-43.36,47.3741,2.838,8.6306,6.5966,17.7823c.955,2.322,1.9619,4.6584,2.9931,7.0011A699.5651,699.5651,0,0,1,722.79,359.2891Z"/><path class="e" d="M879.2807,753.8066q-9.3363-3.84-18.866-8.4522-8.861,6.5458-17.8562,12.697,12.0459,6.27,23.9107,11.5255,9.1812-6.5875,18.2622-13.5889Q882.0241,754.9344,879.2807,753.8066Z"/><path class="e" d="M881.0745,729.4294c2.3428,1.0312,4.6791,2.0382,7.0012,2.9932q9.1428,3.76,17.7824,6.5966,24.2748-20.2928,47.374-43.36,23.0253-23.0254,43.36-47.374-2.838-8.6307-6.5965-17.7824c-.955-2.3221-1.9619-4.6585-2.9931-7.0012a699.5474,699.5474,0,0,1-105.9281,105.928Z"/><path class="e" d="M783.3515,316.232q9.3021-5.7944,18.581-11.0943-11.9774-6.8387-23.891-12.8342-9.2594,5.5928-18.4667,11.623Q771.4269,309.6417,783.3515,316.232Z"/><path class="e" d="M820.5133,772.4867q-9.3019,5.7942-18.5808,11.0942,11.9772,6.8385,23.8909,12.8342,9.2594-5.5926,18.4667-11.6229Q832.4379,779.077,820.5133,772.4867Z"/><path class="e" d="M724.5839,334.9122q9.3363,3.84,18.8659,8.452,8.8611-6.5457,17.8566-12.6971-12.0458-6.27-23.9106-11.5254-9.1815,6.5875-18.2626,13.589Q721.8407,333.7843,724.5839,334.9122Z"/><path class="e" d="M613.8691,458.216q-3.76-9.1428-6.5966-17.7823-8.7551,10.4731-16.9688,21.1266,1.0536,2.7074,2.1814,5.4507,3.84,9.3363,8.4521,18.8659,7.7019-10.4263,15.925-20.66C615.831,462.8744,614.8241,460.538,613.8691,458.216Z"/><path class="e" d="M888.0757,732.4226c-2.3221-.955-4.6584-1.962-7.0012-2.9932q-10.2319,8.2172-20.66,15.925,9.5187,4.594,18.866,8.4522,2.7435,1.1283,5.4507,2.1814,10.6481-8.21,21.1267-16.9688Q897.2274,736.1811,888.0757,732.4226Z"/><path class="e" d="M989.9957,630.5026q3.76,9.1429,6.5965,17.7824,8.755-10.4731,16.9688-21.1265-1.0536-2.7073-2.1815-5.4507-3.84-9.3363-8.4521-18.866-7.7017,10.4262-15.9248,20.66C988.0338,625.8441,989.0407,628.1805,989.9957,630.5026Z"/><path class="e" d="M715.7891,356.296c2.322.955,4.6584,1.9619,7.0011,2.9931q10.2318-8.217,20.66-15.9249-9.5187-4.5939-18.8659-8.452-2.7433-1.1283-5.4507-2.1815-10.6479,8.21-21.1265,16.9688Q706.6374,352.5374,715.7891,356.296Z"/><path class="e" d="M588.24,503.7332q-6.27-12.0461-11.5254-23.9107-7.9132,11.0289-15.2153,22.1791,5.7152,11.8521,12.3055,23.7767.9153-1.47,1.84-2.9395Q581.716,513.22,588.24,503.7332Z"/><path class="e" d="M761.3064,330.6671q9.4893-6.5065,19.1053-12.5945,1.47-.9278,2.94-1.8406-11.9161-6.5971-23.7767-12.3055-11.1442,7.2978-22.179,15.2152Q749.2544,324.3944,761.3064,330.6671Z"/><path class="e" d="M1015.6245,584.9851q6.27,12.0461,11.5256,23.9109,7.9132-11.029,15.2152-22.179Q1036.65,574.8648,1030.06,562.94q-.9154,1.47-1.8407,2.94Q1022.1486,575.4988,1015.6245,584.9851Z"/><path class="e" d="M842.5585,758.0514q-9.4894,6.5067-19.1056,12.5948-1.47.9277-2.94,1.8405,11.9162,6.5971,23.7768,12.3055,11.1441-7.2978,22.1791-15.2153Q854.6105,764.3242,842.5585,758.0514Z"/><path class="e" d="M1041.1539,544.3593q6.8386,11.9774,12.8343,23.891,7.1973-11.9158,13.6519-23.891-6.4521-11.9676-13.6519-23.891Q1047.9915,532.3774,1041.1539,544.3593Z"/><path class="e" d="M562.7108,544.3593q-6.8386-11.9773-12.8342-23.8909-7.1973,11.916-13.6518,23.8909,6.452,11.9676,13.6518,23.8909Q555.8733,556.3411,562.7108,544.3593Z"/><path class="e" d="M801.9325,305.1377q11.9772-6.8385,23.8909-12.8342-11.9158-7.1973-23.8908-13.6518-11.9677,6.4519-23.8911,13.6518Q789.9506,298.3,801.9325,305.1377Z"/><path class="e" d="M801.9325,783.5809q-11.9774,6.8386-23.891,12.8342,11.9161,7.1973,23.8911,13.6518,11.9674-6.452,23.8908-13.6518Q813.9143,790.4184,801.9325,783.5809Z"/><path d="M713.2329,331.88c.4086-.3089.8181-.6126,1.2269-.9206"/><path d="M688.9038,322.9957c-.18.14-.36.278-.5393.4182"/><path d="M873.6505,797.6158c.1171-.0825.2342-.1633.3514-.2459"/><path d="M849.9505,787.2278c-.0713.0484-.1423.0956-.2135.144"/></svg>