<?xml version="1.0" encoding="utf-8"?>
<!-- Generator: Adobe Illustrator 22.0.1, SVG Export Plug-In . SVG Version: 6.00 Build 0)  -->
<svg version="1.1" id="Layer_1" xmlns="http://www.w3.org/2000/svg" xmlns:xlink="http://www.w3.org/1999/xlink" x="0px" y="0px"
	 viewBox="-5 -5 576 576" style="enable-background:new 0 0 576 576;" xml:space="preserve">
<style type="text/css">
	.st0{fill:url(#SVGID_1_);}
	.st1{fill:url(#SVGID_2_);}
	.st2{fill:url(#SVGID_3_);}
	.st3{fill:url(#SVGID_4_);}
	.st4{fill:url(#SVGID_5_);}
</style>
<g>
	<g>
		<linearGradient id="SVGID_1_" gradientUnits="userSpaceOnUse" x1="299.9289" y1="384.1846" x2="299.9289" y2="10.8019">
			<stop  offset="7.099953e-02" style="stop-color:#00DCED"/>
			<stop  offset="0.2773" style="stop-color:#2EB6F1"/>
			<stop  offset="0.996" style="stop-color:#C935FF"/>
		</linearGradient>
		<path class="st0" d="M440.4,149.8c0-76.7-62.9-138.9-140.5-138.9S159.5,73,159.5,149.8c0,29.1,9.1,56.2,24.6,78.5l0,0l79.5,131.5
			c0,0,10.9,24.2,36.4,24.4c25.5,0.3,36.4-24.4,36.4-24.4l83.5-137.5l0,0C432.8,201.1,440.4,176.3,440.4,149.8z M298.9,231.2
			c-43.8,0-79.2-35.5-79.2-79.2s35.5-79.2,79.2-79.2s79.2,35.5,79.2,79.2S342.6,231.2,298.9,231.2z"/>
	</g>
</g>
<linearGradient id="SVGID_2_" gradientUnits="userSpaceOnUse" x1="246.7668" y1="456.1681" x2="349.091" y2="456.1681">
	<stop  offset="0" style="stop-color:#00CBED"/>
	<stop  offset="1" style="stop-color:#55D1FF"/>
</linearGradient>
<path class="st1" d="M297.9,405c-28.3,0-51.2,22.9-51.2,51.2s22.9,51.2,51.2,51.2s51.2-22.9,51.2-51.2S326.2,405,297.9,405z
	 M297.9,478c-12,0-21.8-9.8-21.8-21.8c0-12,9.8-21.8,21.8-21.8s21.8,9.8,21.8,21.8C319.7,468.2,310,478,297.9,478z"/>
<linearGradient id="SVGID_3_" gradientUnits="userSpaceOnUse" x1="131.4504" y1="470.4761" x2="241.4435" y2="470.4761">
	<stop  offset="0" style="stop-color:#00CBED"/>
	<stop  offset="1" style="stop-color:#55D1FF"/>
</linearGradient>
<path class="st2" d="M190.3,405c-10.8,0-20.8,3.4-29.1,9.1c-2.5-5.3-7.9-9.1-14.1-9.1c-8.6,0-15.6,7-15.6,15.6v99.7
	c0,8.6,7,15.6,15.6,15.6c8.6,0,15.6-7,15.6-15.6v-21.1c8,5.1,17.4,8.1,27.6,8.1c28.3,0,51.2-22.9,51.2-51.2S218.5,405,190.3,405z
	 M190.3,478c-12,0-21.8-9.8-21.8-21.8c0-12,9.8-21.8,21.8-21.8s21.8,9.8,21.8,21.8C212.1,468.2,202.3,478,190.3,478z"/>
<linearGradient id="SVGID_4_" gradientUnits="userSpaceOnUse" x1="354.4144" y1="471.4599" x2="464.4074" y2="471.4599">
	<stop  offset="0" style="stop-color:#00CBED"/>
	<stop  offset="1" style="stop-color:#55D1FF"/>
</linearGradient>
<path class="st3" d="M413.2,406c-10.8,0-20.8,3.4-29.1,9.1c-2.5-5.3-7.9-9.1-14.1-9.1c-8.6,0-15.6,7-15.6,15.6v99.7
	c0,8.6,7,15.6,15.6,15.6s15.6-7,15.6-15.6v-21.1c8,5.1,17.4,8.1,27.6,8.1c28.3,0,51.2-22.9,51.2-51.2S441.5,406,413.2,406z
	 M413.2,478.9c-12,0-21.8-9.8-21.8-21.8c0-12,9.8-21.8,21.8-21.8s21.8,9.8,21.8,21.8C435,469.2,425.3,478.9,413.2,478.9z"/>
<linearGradient id="SVGID_5_" gradientUnits="userSpaceOnUse" x1="299.9289" y1="124.83" x2="299.9289" y2="53.3449">
	<stop  offset="0.1557" style="stop-color:#FF1FC7"/>
	<stop  offset="1" style="stop-color:#0924FF"/>
	<stop  offset="1" style="stop-color:#B224FF"/>
</linearGradient>
<path class="st4" d="M320.8,135.4h0.2l-0.2-0.5c-0.4-1.9-0.9-4-1.9-6.4c-0.6-1.5-1.2-2.8-1.9-4c-5.7-13.2-11.4-24.1-17.1-37.4
	c-5.6,13-11.2,23.8-16.8,36.9c-0.7,1.3-1.5,2.8-2.2,4.6c-0.9,2.3-1.5,4.5-1.8,6.3l-0.2,0.5h0.2c-0.1,0.7-0.2,1.4-0.2,2.2
	c0,11.6,9.4,21.1,21.1,21.1s21.1-9.4,21.1-21.1C321,136.9,320.9,136.2,320.8,135.4z"/>
</svg>
